<?xml version="1.0" standalone="no"?>
<!DOCTYPE svg PUBLIC "-//W3C//DTD SVG 20010904//EN"
 "http://www.w3.org/TR/2001/REC-SVG-20010904/DTD/svg10.dtd">
<svg version="1.0" xmlns="http://www.w3.org/2000/svg"
 width="1024.000000pt" height="622.000000pt" viewBox="0 0 1024.000000 622.000000"
 preserveAspectRatio="xMidYMid meet">

<g transform="translate(0.000000,622.000000) scale(0.100000,-0.100000)"
fill="#000000" stroke="none">
<path d="M359 6001 c-26 -27 -30 -37 -25 -64 8 -41 39 -67 81 -67 105 0 117
140 13 157 -32 5 -41 1 -69 -26z m89 -59 c-2 -23 -8 -27 -33 -27 -24 0 -31 5
-33 24 -5 32 23 54 50 40 13 -7 18 -19 16 -37z"/>
<path d="M170 5945 l0 -75 70 0 c63 0 70 2 70 20 0 17 -7 20 -45 20 l-45 0 0
55 c0 52 -1 55 -25 55 -24 0 -25 -2 -25 -75z"/>
<path d="M186 5829 c-32 -25 -35 -75 -7 -110 14 -18 29 -24 61 -24 45 0 80 29
80 66 0 15 -7 19 -40 19 -29 0 -40 -4 -40 -15 0 -8 7 -15 16 -15 8 0 12 -4 9
-10 -12 -19 -45 -10 -57 15 -16 35 6 59 47 52 46 -7 60 1 39 24 -23 25 -74 24
-108 -2z"/>
<path d="M361 5833 c-11 -10 -24 -32 -27 -50 -5 -27 -1 -37 25 -64 28 -27 37
-31 69 -26 45 8 72 38 72 82 0 63 -89 99 -139 58z m73 -29 c24 -9 21 -61 -4
-69 -39 -12 -66 35 -38 63 14 14 20 14 42 6z"/>
<path d="M243 5361 c-5 -21 -31 -34 -73 -35 -20 -1 -25 -6 -25 -26 0 -20 5
-25 25 -26 42 -1 68 -14 73 -35 8 -31 52 -22 52 11 0 20 -5 25 -25 26 -34 1
-70 13 -70 24 0 11 36 23 70 24 20 1 25 6 25 26 0 33 -44 42 -52 11z"/>
<path d="M4390 3465 l-34 -35 37 -37 c40 -40 65 -38 27 2 l-23 25 61 0 c35 0
62 4 62 10 0 6 -27 10 -62 10 l-61 0 21 23 c12 13 22 26 22 30 0 15 -18 5 -50
-28z"/>
<path d="M180 2360 c-19 -19 -20 -33 -20 -270 0 -237 1 -251 20 -270 19 -19
33 -20 255 -20 222 0 236 1 255 20 19 19 20 33 20 270 0 237 -1 251 -20 270
-19 19 -33 20 -255 20 -222 0 -236 -1 -255 -20z m127 -120 c-4 -17 0 -20 31
-20 46 0 72 -24 72 -67 0 -41 -16 -43 -25 -2 -4 19 -16 34 -32 40 -39 14 -52
11 -46 -11 7 -25 -13 -26 -39 -3 -22 20 -23 41 -1 65 22 25 47 24 40 -2z"/>
<path d="M770 2320 c-18 -18 -20 -33 -20 -170 0 -202 -13 -190 210 -190 223 0
210 -12 210 190 0 202 13 190 -210 190 -157 0 -172 -2 -190 -20z m250 -110
c13 -13 20 -33 20 -60 0 -53 -27 -80 -80 -80 -27 0 -47 7 -60 20 -13 13 -20
33 -20 60 0 53 27 80 80 80 27 0 47 -7 60 -20z"/>
<path d="M950 2172 c0 -11 10 -27 23 -38 12 -10 16 -12 10 -4 -7 8 -13 24 -13
37 0 13 -4 23 -10 23 -5 0 -10 -8 -10 -18z"/>
<path d="M1230 2160 c-19 -19 -20 -33 -20 -270 0 -237 1 -251 20 -270 19 -19
33 -20 255 -20 222 0 236 1 255 20 19 19 20 33 20 270 0 237 -1 251 -20 270
-19 19 -33 20 -255 20 -222 0 -236 -1 -255 -20z m287 -320 c-4 -17 0 -20 31
-20 46 0 72 -24 72 -67 0 -41 -16 -43 -25 -2 -4 19 -16 34 -32 40 -39 14 -52
11 -46 -11 7 -25 -13 -26 -39 -3 -22 20 -23 41 -1 65 22 25 47 24 40 -2z"/>
<path d="M181 666 c-8 -9 -11 -65 -9 -177 l3 -164 1870 0 1870 0 0 175 0 175
-1861 3 c-1576 2 -1863 0 -1873 -12z m137 -78 c19 -19 16 -153 -4 -172 -8 -9
-19 -16 -24 -16 -27 0 -40 34 -40 104 0 73 10 96 40 96 9 0 21 -5 28 -12z m82
-38 c23 -23 18 -40 -24 -79 l-26 -24 0 55 c0 73 13 85 50 48z m44 -93 c19 -30
-5 -52 -60 -55 l-49 -3 40 41 c41 42 52 45 69 17z"/>
<path d="M280 440 c0 -5 5 -10 10 -10 6 0 10 5 10 10 0 6 -4 10 -10 10 -5 0
-10 -4 -10 -10z"/>
</g>
</svg>
